Coordinates
version=1
nRows=9
nColumns=36
inDegrees=yes

Units are S.I. units (second, meters, Newtons, ...)
If the header above contains a line with 'inDegrees', this indicates whether rotational values are in degrees (yes) or radians (no).

endheader
time	pelvis_tilt	pelvis_list	pelvis_rotation	pelvis_tx	pelvis_ty	pelvis_tz	hip_flexion_r	hip_adduction_r	hip_rotation_r	knee_angle_r	knee_angle_r_beta	ankle_angle_r	subtalar_angle_r	mtp_angle_r	hip_flexion_l	hip_adduction_l	hip_rotation_l	knee_angle_l	knee_angle_l_beta	ankle_angle_l	subtalar_angle_l	mtp_angle_l	lumbar_extension	lumbar_bending	lumbar_rotation	arm_flex_r	arm_add_r	arm_rot_r	elbow_flex_r	pro_sup_r	arm_flex_l	arm_add_l	arm_rot_l	elbow_flex_l	pro_sup_l
      1.61666670	    -12.70810203	     -2.38052226	      5.41602370	      0.74582859	      0.88146494	      0.11772550	     41.70518674	    -20.21536381	    -22.36805406	     51.26579900	      0.89475699	     23.10331569	     -0.77015085	     -7.49999987	     43.24523268	    -18.35055316	    -15.00579410	     50.82000058	      0.88697634	     23.89018783	     -7.66314953	     -7.49999987	    -13.79652680	      3.17947721	     -0.72233477	     63.13613936	      4.48473074	     64.99158589	    117.41233223	     99.26959223	     56.77728344	      3.13576771	     64.64412678	    111.15140240	    104.59530870
      1.63333330	    -13.96835963	     -2.61960827	      5.53892760	      0.74280962	      0.86968592	      0.12055595	     45.36294537	    -21.05938933	    -21.47690375	     54.79478346	      0.95634938	     23.89212574	     -1.03248141	     -7.49999987	     47.11626649	    -18.78253087	    -14.12878129	     54.31473323	      0.94797093	     25.21986225	     -7.76084221	     -7.49999987	    -14.94013292	      3.47281531	     -0.38474845	     64.58734423	      4.16782711	     65.16669164	    118.39215097	     99.27723216	     58.69142386	      3.24967982	     65.81132126	    110.96825099	    104.50631887
      1.65000000	    -15.17434054	     -2.87254647	      5.68862152	      0.73275119	      0.85228901	      0.11957970	     49.04436077	    -21.85809736	    -20.55433511	     58.24942554	      1.01664426	     24.69165318	     -1.27722594	     -7.49999987	     50.94346087	    -19.17255623	    -13.22626186	     57.75090782	      1.00794349	     26.38263609	     -7.90845602	     -7.49999987	    -15.88673710	      3.73050609	      0.13531680	     66.92572569	      3.07585407	     64.33953116	    118.36831773	     97.43422420	     60.87985343	      1.99477284	     59.20811877	    109.08513590	    102.13041408
      1.66666670	    -16.36877770	     -3.17262980	      5.87157804	      0.72365001	      0.83566597	      0.11964573	     52.86383573	    -22.65421200	    -19.58634615	     61.80063046	      1.07862448	     25.64375952	     -1.56176111	     -7.49999987	     54.95888422	    -19.51520954	    -12.14081249	     61.28767326	      1.06967169	     27.44069059	     -8.16593850	     -7.49999987	    -16.97116072	      4.31711015	      0.24568370	     70.15043547	      2.66076961	     63.67970303	    117.54520837	     97.22359128	     62.83008883	      0.45642967	     47.09438772	    106.71486851	     99.73802364
      1.68333330	    -17.16092437	     -3.24858556	      5.97266601	      0.72847764	      0.82778694	      0.11735621	     55.84172618	    -23.41654770	    -18.73627741	     64.65378548	      1.12842143	     26.69276286	     -1.62537606	     -7.49999987	     57.79613131	    -19.58968776	    -11.32480107	     63.98167757	      1.11669093	     28.45232810	     -8.36353160	     -7.49999987	    -17.97098013	      4.47171571	      0.58478272	     71.03787991	      1.99562349	     64.25850248	    117.92238876	     98.18340425	     62.90646794	      0.57735022	     38.23252654	    104.21015080	     99.38232361
      1.70000000	    -17.85104666	     -3.51504613	      6.11484449	      0.72860336	      0.81867208	      0.11699139	     58.29281989	    -23.96302735	    -18.14571064	     67.06937896	      1.17058149	     27.65680137	     -1.81568607	     -7.49999987	     60.32027951	    -19.69566193	    -10.33115922	     66.34665151	      1.15796752	     29.39756419	     -8.32098081	     -7.49999987	    -19.13671306	      4.84911885	      0.42890278	     70.13249335	      2.37499043	     65.40927199	    119.41159847	    104.71199246	     61.84168638	      1.73093423	     47.93388001	    108.57381014	    104.12175523
      1.71666670	    -18.64479294	     -3.71728885	      6.26941659	      0.72279054	      0.80846619	      0.11380037	     60.79054187	    -24.50129071	    -17.40532473	     69.36575293	      1.21066078	     28.46254435	     -2.09333524	     -7.49999987	     62.82117143	    -19.68268118	     -9.48065589	     68.54689337	      1.19636898	     30.23628923	     -8.24128194	     -7.49999987	    -19.98037459	      5.21209043	      0.69328012	     69.75950712	      2.11267939	     65.49720375	    120.48919026	    104.17054507	     61.67643105	      2.97296665	     56.45917181	    109.99196121	    105.22962045
      1.73333330	    -19.39087295	     -3.98569541	      6.47051586	      0.72819569	      0.79781036	      0.11030686	     62.92575187	    -25.09864313	    -16.93048787	     71.41999803	      1.24651412	     29.40683950	     -2.14776780	     -7.49999987	     65.05347760	    -19.50198462	     -8.46677447	     70.51640676	      1.23074347	     31.34153172	     -7.97582374	     -7.49999987	    -20.62802040	      5.79010978	      0.55615483	     69.71444436	      1.86841408	     66.77893612	    120.91916783	    103.90144568	     61.42331406	      3.71072170	     61.58532949	    110.62079112	    105.51554848
      1.75000000	    -19.90090852	     -4.11556236	      6.53697737	      0.72572677	      0.79061644	      0.10562140	     64.75768563	    -25.54435110	    -16.23931881	     73.23562003	      1.27820270	     30.01649295	     -2.51552494	     -7.49999987	     66.79168568	    -19.31588561	     -7.67773486	     72.27488889	      1.26143478	     32.28333266	     -8.00512179	     -7.49999987	    -21.70267519	      5.91147461	      1.00010006	     69.85585591	      0.67362510	     67.12545033	    122.40446922	    103.31264396	     62.12446848	      5.08250375	     65.26326205	    110.29687472	    105.71349045
